<svg width="30" height="30" viewBox="0 0 30 30" fill="none" xmlns="http://www.w3.org/2000/svg">
<g clip-path="url(#clip0_1_158)">
<path fill-rule="evenodd" clip-rule="evenodd" d="M6.31003 18.9051C6.31035 19.318 6.22925 19.7268 6.07137 20.1083C5.91348 20.4898 5.68191 20.8364 5.3899 21.1283C5.09789 21.4202 4.75119 21.6517 4.36963 21.8094C3.98807 21.9671 3.57915 22.0481 3.16628 22.0476C2.75361 22.0477 2.34496 21.9666 1.96369 21.8087C1.58242 21.6508 1.23601 21.4193 0.944268 21.1274C0.652526 20.8356 0.421176 20.4891 0.263445 20.1078C0.105714 19.7264 0.0246968 19.3177 0.0250254 18.9051C0.0246966 18.4923 0.105755 18.0835 0.263564 17.7021C0.421373 17.3207 0.652836 16.9741 0.944709 16.6823C1.23658 16.3904 1.58314 16.1589 1.96455 16.0011C2.34597 15.8433 2.75475 15.7622 3.16753 15.7626H6.31128V18.9051H6.31003ZM7.88128 18.9051C7.88095 18.4923 7.96201 18.0835 8.11981 17.7021C8.27762 17.3207 8.50909 16.9741 8.80096 16.6823C9.09283 16.3904 9.43939 16.1589 9.8208 16.0011C10.2022 15.8433 10.611 15.7622 11.0238 15.7626C11.4365 15.7622 11.8453 15.8433 12.2267 16.0011C12.6082 16.1589 12.9547 16.3904 13.2466 16.6823C13.5385 16.9741 13.7699 17.3207 13.9277 17.7021C14.0855 18.0835 14.1666 18.4923 14.1663 18.9051V26.7626C14.1666 27.1753 14.0855 27.5841 13.9277 27.9655C13.7699 28.347 13.5385 28.6935 13.2466 28.9854C12.9547 29.2773 12.6082 29.5087 12.2267 29.6665C11.8453 29.8243 11.4365 29.9054 11.0238 29.9051C10.611 29.9054 10.2022 29.8243 9.8208 29.6665C9.43939 29.5087 9.09283 29.2773 8.80096 28.9854C8.50909 28.6935 8.27762 28.347 8.11981 27.9655C7.96201 27.5841 7.88095 27.1753 7.88128 26.7626V18.9051Z" fill="#E01E5A"/>
<path fill-rule="evenodd" clip-rule="evenodd" d="M11.0238 6.28625C10.6109 6.28658 10.202 6.20548 9.82049 6.04759C9.43899 5.88971 9.09238 5.65813 8.80049 5.36613C8.5086 5.07412 8.27717 4.72741 8.11943 4.34586C7.9617 3.9643 7.88076 3.55538 7.88125 3.1425C7.88092 2.72973 7.96198 2.32094 8.11979 1.93953C8.2776 1.55812 8.50906 1.21156 8.80093 0.919685C9.09281 0.627811 9.43937 0.396349 9.82078 0.23854C10.2022 0.080731 10.611 -0.000327775 11.0238 9.96107e-07C11.4365 -0.000327775 11.8453 0.080731 12.2267 0.23854C12.6081 0.396349 12.9547 0.627811 13.2466 0.919685C13.5384 1.21156 13.7699 1.55812 13.9277 1.93953C14.0855 2.32094 14.1666 2.72973 14.1663 3.1425V6.2875H11.025L11.0238 6.28625ZM11.0238 7.88125C11.4365 7.88092 11.8453 7.96198 12.2267 8.11979C12.6081 8.2776 12.9547 8.50906 13.2466 8.80093C13.5384 9.09281 13.7699 9.43937 13.9277 9.82078C14.0855 10.2022 14.1666 10.611 14.1663 11.0238C14.1666 11.4365 14.0855 11.8453 13.9277 12.2267C13.7699 12.6081 13.5384 12.9547 13.2466 13.2466C12.9547 13.5384 12.6081 13.7699 12.2267 13.9277C11.8453 14.0855 11.4365 14.1666 11.0238 14.1663H3.1425C2.72983 14.1666 2.32115 14.0856 1.93982 13.9278C1.55849 13.7701 1.21198 13.5388 0.920127 13.247C0.62827 12.9553 0.396782 12.6089 0.238899 12.2276C0.0810166 11.8463 -0.000163413 11.4377 9.96107e-07 11.025C-0.000327775 10.6122 0.080731 10.2034 0.23854 9.82203C0.396349 9.44062 0.627811 9.09406 0.919685 8.80219C1.21156 8.51031 1.55812 8.27885 1.93953 8.12104C2.32094 7.96323 2.72973 7.88217 3.1425 7.8825H11.025L11.0238 7.88125Z" fill="#36C5F0"/>
<path fill-rule="evenodd" clip-rule="evenodd" d="M23.6187 11.0238C23.6184 10.6109 23.6995 10.202 23.8574 9.82049C24.0153 9.439 24.2468 9.09238 24.5389 8.80049C24.8309 8.5086 25.1776 8.27717 25.5591 8.11943C25.9407 7.9617 26.3496 7.88076 26.7625 7.88125C27.1753 7.88092 27.584 7.96198 27.9655 8.11979C28.3469 8.2776 28.6934 8.50906 28.9853 8.80094C29.2772 9.09281 29.5086 9.43937 29.6664 9.82078C29.8243 10.2022 29.9053 10.611 29.905 11.0238C29.9053 11.4365 29.8243 11.8453 29.6664 12.2267C29.5086 12.6081 29.2772 12.9547 28.9853 13.2466C28.6934 13.5384 28.3469 13.7699 27.9655 13.9277C27.584 14.0855 27.1753 14.1666 26.7625 14.1663H23.6187V11.025V11.0238ZM22.0475 11.0238C22.0478 11.4365 21.9668 11.8453 21.8089 12.2267C21.6511 12.6081 21.4197 12.9547 21.1278 13.2466C20.8359 13.5384 20.4894 13.7699 20.108 13.9277C19.7265 14.0855 19.3178 14.1666 18.905 14.1663C18.4921 14.1667 18.0832 14.0858 17.7016 13.9281C17.3201 13.7703 16.9734 13.5389 16.6814 13.247C16.3894 12.9551 16.1578 12.6085 15.9999 12.227C15.842 11.8455 15.7609 11.4366 15.7612 11.0238V3.1425C15.7609 2.72963 15.842 2.32074 15.9999 1.93924C16.1578 1.55775 16.3894 1.21113 16.6814 0.919243C16.9734 0.627353 17.3201 0.395917 17.7016 0.238182C18.0832 0.0804465 18.4921 -0.000490976 18.905 2.24065e-06C19.3178 -0.00032653 19.7265 0.0807322 20.108 0.238541C20.4894 0.39635 20.8359 0.627812 21.1278 0.919686C21.4197 1.21156 21.6511 1.55812 21.8089 1.93953C21.9668 2.32094 22.0478 2.72973 22.0475 3.1425V11.025V11.0238Z" fill="#2EB67D"/>
<path fill-rule="evenodd" clip-rule="evenodd" d="M18.905 23.6188C19.3178 23.6185 19.7266 23.6996 20.108 23.8574C20.4894 24.0152 20.836 24.2466 21.1278 24.5385C21.4197 24.8304 21.6512 25.1769 21.809 25.5584C21.9668 25.9398 22.0478 26.3486 22.0475 26.7613C22.048 27.1742 21.9671 27.5831 21.8093 27.9647C21.6516 28.3462 21.4202 28.6929 21.1283 28.985C20.8364 29.277 20.4898 29.5085 20.1083 29.6664C19.7268 29.8243 19.3179 29.9054 18.905 29.9051C18.4921 29.9054 18.0832 29.8243 17.7018 29.6664C17.3203 29.5085 16.9736 29.277 16.6818 28.985C16.3899 28.6929 16.1584 28.3462 16.0007 27.9647C15.843 27.5831 15.762 27.1742 15.7625 26.7613V23.6188H18.905ZM18.905 22.0476C18.4922 22.0479 18.0835 21.9668 17.702 21.809C17.3206 21.6512 16.9741 21.4198 16.6822 21.1279C16.3903 20.836 16.1589 20.4895 16.0011 20.108C15.8432 19.7266 15.7622 19.3178 15.7625 18.9051C15.7622 18.4923 15.8432 18.0835 16.0011 17.7021C16.1589 17.3207 16.3903 16.9741 16.6822 16.6823C16.9741 16.3904 17.3206 16.1589 17.702 16.0011C18.0835 15.8433 18.4922 15.7622 18.905 15.7626H26.7863C27.199 15.7622 27.6078 15.8433 27.9892 16.0011C28.3706 16.1589 28.7172 16.3904 29.0091 16.6823C29.301 16.9741 29.5324 17.3207 29.6902 17.7021C29.848 18.0835 29.9291 18.4923 29.9288 18.9051C29.9291 19.3178 29.848 19.7266 29.6902 20.108C29.5324 20.4895 29.301 20.836 29.0091 21.1279C28.7172 21.4198 28.3706 21.6512 27.9892 21.809C27.6078 21.9668 27.199 22.0479 26.7863 22.0476H18.905Z" fill="#ECB22E"/>
</g>
<defs>
<clipPath id="clip0_1_158">
<rect width="30" height="30" fill="white"/>
</clipPath>
</defs>
</svg>
