<svg width="32" height="35" viewBox="0 0 32 35" fill="none" xmlns="http://www.w3.org/2000/svg">
<g clip-path="url(#clip0_1_238)">
<path d="M27.5004 6.9655C26.471 5.13975 24.1642 3.96569 21.0357 3.30944L11.9559 1.40482C11.6464 1.3399 11.3238 1.38753 11.0463 1.53915C10.7687 1.69077 10.5543 1.93643 10.4417 2.23197L1.63131 25.4168C1.45698 25.8738 1.73329 26.3788 2.21253 26.4793L7.81808 27.6552L11.0989 19.0211L10.9966 19.2915C11.2293 18.6814 11.8668 18.3291 12.506 18.4632L15.1697 19.0219C20.4027 20.1196 24.946 18.8536 27.4327 12.9561C27.5063 12.7817 27.5742 12.6112 27.6371 12.4439C27.5028 12.3322 27.5028 12.3322 27.6371 12.4439C28.4702 10.2461 28.4359 8.62387 27.5004 6.9655Z" fill="#27346A"/>
<path d="M15.4341 9.02944C15.6027 8.98861 15.7782 8.98596 15.9479 9.02166L23.0663 10.5149C23.9093 10.6917 24.684 10.9114 25.3782 11.1778C25.5725 11.252 25.7645 11.3322 25.9538 11.4183C26.2224 11.5396 26.4848 11.674 26.74 11.8212C27.0685 12.0132 27.3686 12.2196 27.6372 12.4439C28.4704 10.2452 28.4359 8.62387 27.5004 6.9655C26.4702 5.13959 24.1642 3.96569 21.0357 3.30944L11.9551 1.40466C11.3158 1.27055 10.6743 1.6219 10.4417 2.23197L1.6315 25.4159C1.45701 25.8737 1.73344 26.3781 2.21189 26.4785L7.81822 27.6545L14.6242 9.74544C14.6911 9.56941 14.7997 9.41227 14.9408 9.28754C15.0819 9.16282 15.2512 9.07424 15.4341 9.02944Z" fill="#27346A"/>
<path d="M27.4327 12.9561C24.9462 18.8527 20.4028 20.1196 15.1698 19.0219L12.5053 18.4629C11.866 18.3288 11.2285 18.6811 10.9967 19.2915L6.91639 30.0268C6.76416 30.4268 7.00551 30.8689 7.42416 30.9567L12.1495 31.9479C12.4202 32.0046 12.7022 31.9629 12.9449 31.8302C13.1876 31.6976 13.375 31.4827 13.4734 31.2242L13.5699 30.9931L15.6445 25.5355L15.7673 25.2356C15.8657 24.9771 16.053 24.7622 16.2957 24.6295C16.5383 24.4969 16.8204 24.4551 17.0911 24.5118L17.7983 24.6601C22.3757 25.6203 26.3501 24.5125 28.5257 19.3539C29.4343 17.198 29.6017 15.274 28.7217 13.7133C28.4547 13.2405 28.0882 12.8194 27.6371 12.4438C27.5732 12.6118 27.5065 12.7817 27.4327 12.9561Z" fill="#2790C3"/>
<path d="M26.4892 11.6817C26.314 11.588 26.1357 11.5003 25.9547 11.4185C25.7651 11.3331 25.5731 11.2532 25.3789 11.1787C24.6841 10.9115 23.9099 10.6917 23.0662 10.5147L15.9487 9.02172C15.7789 8.9857 15.6032 8.98866 15.4347 9.03036C15.2517 9.07489 15.0822 9.16336 14.9411 9.28812C14.7999 9.41287 14.6913 9.57015 14.6247 9.74634L11.0997 19.0212L10.9974 19.2917C11.2293 18.6814 11.8668 18.3291 12.5061 18.4632L15.1706 19.0221C20.4035 20.1198 24.9467 18.8538 27.4334 12.9563C27.5072 12.7819 27.5741 12.612 27.638 12.444C27.3684 12.2205 27.0694 12.0134 26.7406 11.8221C26.6577 11.7738 26.5739 11.727 26.4893 11.6817" fill="#1F264F"/>
</g>
<defs>
<clipPath id="clip0_1_238">
<rect width="25.3958" height="29.9591" fill="white" transform="translate(6.89447 0.260254) rotate(11.8469)"/>
</clipPath>
</defs>
</svg>
