<svg width="60" height="60" viewBox="0 0 60 60" fill="none" xmlns="http://www.w3.org/2000/svg">
<path d="M55.25 46.8761L55.25 55.25H53.5L53.5 46.875L53.5 46.8738C53.4967 44.1235 52.4027 41.4868 50.4579 39.5421C48.7501 37.8342 46.5085 36.7824 44.125 36.5493V34.7925C46.9731 35.0313 49.6582 36.2696 51.6943 38.3057C53.9674 40.5788 55.2461 43.6607 55.25 46.8753C55.25 46.8756 55.25 46.8759 55.25 46.8761Z" fill="#EE4F3C" stroke="#EE4F3C" stroke-width="2"/>
<path d="M40.25 46.8761V55.25H38.5V46.875V46.8738C38.4967 44.1235 37.4027 41.4868 35.4579 39.5421C33.5132 37.5973 30.8765 36.5033 28.1262 36.5H28.125L16.875 36.5L16.8738 36.5C14.1235 36.5033 11.4868 37.5973 9.54206 39.5421C7.5973 41.4868 6.50329 44.1235 6.5 46.8738V46.875V55.25H4.75V46.8756C4.75382 43.6609 6.03255 40.5789 8.30572 38.3057C10.5789 36.0326 13.6609 34.7538 16.8756 34.75H28.1244C31.3391 34.7538 34.4211 36.0326 36.6943 38.3057C38.9676 40.579 40.2463 43.6612 40.25 46.8761Z" fill="#EE4F3C" stroke="#EE4F3C" stroke-width="2"/>
<path d="M38.5 6.54827V4.79128C41.3496 5.02699 44.0367 6.26435 46.0737 8.30133C48.3475 10.5752 49.625 13.6593 49.625 16.875C49.625 20.0907 48.3475 23.1748 46.0737 25.4487C44.0367 27.4857 41.3496 28.723 38.5 28.9587V27.2017C40.8846 26.9709 43.1277 25.9198 44.8362 24.2112C46.7819 22.2655 47.875 19.6266 47.875 16.875C47.875 14.1234 46.7819 11.4845 44.8362 9.53877C43.1277 7.83021 40.8846 6.77911 38.5 6.54827Z" fill="#EE4F3C" stroke="#EE4F3C" stroke-width="2"/>
<path d="M28.264 8.2485C26.5579 7.10848 24.552 6.5 22.5 6.5C19.7484 6.5 17.1095 7.59308 15.1638 9.53877C13.2181 11.4845 12.125 14.1234 12.125 16.875C12.125 18.927 12.7335 20.9329 13.8735 22.639C15.0135 24.3452 16.6339 25.675 18.5297 26.4603C20.4255 27.2455 22.5115 27.451 24.5241 27.0506C26.5366 26.6503 28.3853 25.6622 29.8362 24.2112C31.2872 22.7603 32.2753 20.9116 32.6757 18.8991C33.076 16.8865 32.8705 14.8004 32.0853 12.9047C31.3 11.0089 29.9702 9.38852 28.264 8.2485ZM15.7637 6.79343C17.7577 5.46112 20.1019 4.75 22.5 4.75C25.7158 4.75 28.7998 6.02745 31.0737 8.30133C33.3476 10.5752 34.625 13.6593 34.625 16.875C34.625 19.2731 33.9139 21.6173 32.5816 23.6113C31.2493 25.6052 29.3556 27.1593 27.14 28.077C24.9245 28.9948 22.4866 29.2349 20.1345 28.767C17.7825 28.2992 15.622 27.1444 13.9263 25.4487C12.2306 23.753 11.0758 21.5925 10.608 19.2405C10.1401 16.8885 10.3803 14.4505 11.298 12.235C12.2157 10.0194 13.7698 8.12574 15.7637 6.79343Z" fill="#EE4F3C" stroke="#EE4F3C" stroke-width="2"/>
</svg>
