<svg width="60" height="60" viewBox="0 0 60 60" fill="none" xmlns="http://www.w3.org/2000/svg">
<path d="M30 52.5L35 47.5M41.25 47.5C42.9076 47.5 44.4973 46.8415 45.6694 45.6694C46.8415 44.4973 47.5 42.9076 47.5 41.25C47.5 39.5924 46.8415 38.0027 45.6694 36.8306C44.4973 35.6585 42.9076 35 41.25 35C39.5924 35 38.0027 35.6585 36.8306 36.8306C35.6585 38.0027 35 39.5924 35 41.25C35 42.9076 35.6585 44.4973 36.8306 45.6694C38.0027 46.8415 39.5924 47.5 41.25 47.5V47.5ZM25 12.5L30 7.5L25 12.5ZM18.75 25C20.4076 25 21.9973 24.3415 23.1694 23.1694C24.3415 21.9973 25 20.4076 25 18.75C25 17.0924 24.3415 15.5027 23.1694 14.3306C21.9973 13.1585 20.4076 12.5 18.75 12.5C17.0924 12.5 15.5027 13.1585 14.3306 14.3306C13.1585 15.5027 12.5 17.0924 12.5 18.75C12.5 20.4076 13.1585 21.9973 14.3306 23.1694C15.5027 24.3415 17.0924 25 18.75 25V25ZM20 40L40 20L20 40ZM13.75 52.5C15.4076 52.5 16.9973 51.8415 18.1694 50.6694C19.3415 49.4973 20 47.9076 20 46.25C20 44.5924 19.3415 43.0027 18.1694 41.8306C16.9973 40.6585 15.4076 40 13.75 40C12.0924 40 10.5027 40.6585 9.33058 41.8306C8.15848 43.0027 7.5 44.5924 7.5 46.25C7.5 47.9076 8.15848 49.4973 9.33058 50.6694C10.5027 51.8415 12.0924 52.5 13.75 52.5V52.5ZM46.25 20C47.9076 20 49.4973 19.3415 50.6694 18.1694C51.8415 16.9973 52.5 15.4076 52.5 13.75C52.5 12.0924 51.8415 10.5027 50.6694 9.33058C49.4973 8.15848 47.9076 7.5 46.25 7.5C44.5924 7.5 43.0027 8.15848 41.8306 9.33058C40.6585 10.5027 40 12.0924 40 13.75C40 15.4076 40.6585 16.9973 41.8306 18.1694C43.0027 19.3415 44.5924 20 46.25 20Z" stroke="#EE4F3C" stroke-width="4" stroke-linecap="round" stroke-linejoin="round"/>
</svg>
