<svg width="60" height="60" viewBox="0 0 60 60" fill="none" xmlns="http://www.w3.org/2000/svg">
<path d="M47.5 7.5H12.5C11.1739 7.5 9.90215 8.02678 8.96447 8.96447C8.02678 9.90215 7.5 11.1739 7.5 12.5V47.5C7.5 48.8261 8.02678 50.0979 8.96447 51.0355C9.90215 51.9732 11.1739 52.5 12.5 52.5H47.5C48.8261 52.5 50.0979 51.9732 51.0355 51.0355C51.9732 50.0979 52.5 48.8261 52.5 47.5V12.5C52.5 11.1739 51.9732 9.90215 51.0355 8.96447C50.0979 8.02678 48.8261 7.5 47.5 7.5Z" stroke="#EE4F3C" stroke-width="4" stroke-linecap="round" stroke-linejoin="round"/>
<path d="M17.5 17.5H42.5" stroke="#EE4F3C" stroke-width="4" stroke-linecap="round" stroke-linejoin="round"/>
<path d="M17.5 30H42.5" stroke="#EE4F3C" stroke-width="4" stroke-linecap="round" stroke-linejoin="round"/>
<path d="M17.5 42.5H32.5" stroke="#EE4F3C" stroke-width="4" stroke-linecap="round" stroke-linejoin="round"/>
</svg>
