<svg width="100" height="100" viewBox="0 0 100 100" fill="none" xmlns="http://www.w3.org/2000/svg">
<circle cx="50" cy="50" r="50" fill="#EE4F3C"/>
<path d="M73.3333 41.6667H60C59.1159 41.6667 58.2681 42.0179 57.643 42.6431C57.0178 43.2682 56.6667 44.116 56.6667 45.0001V70.0001C56.6667 70.8841 57.0178 71.732 57.643 72.3571C58.2681 72.9822 59.1159 73.3334 60 73.3334H73.3333C74.2174 73.3334 75.0652 72.9822 75.6904 72.3571C76.3155 71.732 76.6667 70.8841 76.6667 70.0001V45.0001C76.6667 44.116 76.3155 43.2682 75.6904 42.6431C75.0652 42.0179 74.2174 41.6667 73.3333 41.6667ZM73.3333 45.0001V63.3334H60V45.0001H73.3333ZM60 70.0001V66.0001H73.3333V70.0001H60Z" fill="white"/>
<path d="M53.3333 56.6667H26.6667V30.0001H66.6667V38.3334H70V30.0001C70 29.116 69.6488 28.2682 69.0237 27.6431C68.3986 27.0179 67.5507 26.6667 66.6667 26.6667H26.6667C25.7826 26.6667 24.9348 27.0179 24.3096 27.6431C23.6845 28.2682 23.3333 29.116 23.3333 30.0001V56.6667C23.3333 57.5508 23.6845 58.3986 24.3096 59.0238C24.9348 59.6489 25.7826 60.0001 26.6667 60.0001H53.3333V56.6667Z" fill="white"/>
<path d="M53.3333 63.3334H35C34.558 63.3334 34.1341 63.509 33.8215 63.8215C33.5089 64.1341 33.3333 64.558 33.3333 65C33.3333 65.4421 33.5089 65.866 33.8215 66.1786C34.1341 66.4911 34.558 66.6667 35 66.6667H53.3333V63.3334Z" fill="white"/>
</svg>
