<svg width="30" height="30" viewBox="0 0 30 30" fill="none" xmlns="http://www.w3.org/2000/svg">
<path d="M14.4575 26.9537V16.0012C14.7763 16.03 15.0825 16.045 15.405 16.045C16.9338 16.045 18.3725 15.645 19.5925 14.9287V26.9512C19.5925 27.9787 19.3488 28.7375 18.8738 29.2437C18.4013 29.7475 17.7738 30 17.01 30C16.26 30 15.6638 29.7475 15.175 29.2275C14.7025 28.7237 14.4575 27.965 14.4575 26.9537ZM14.4863 0.707481C17.6675 -0.408769 21.2888 -0.348769 24.01 1.94123C24.5163 2.40248 25.0938 2.98248 25.3238 3.66623C25.5988 4.53123 24.3613 3.57498 24.1913 3.45748C23.3038 2.89123 22.4188 2.41623 21.4263 2.08998C16.075 0.483731 11.015 3.38623 7.86876 7.89373C6.55376 9.88623 5.69751 11.9837 4.99376 14.29C4.91876 14.5425 4.85751 14.8712 4.71876 15.0925C4.57876 15.3462 4.65876 14.41 4.65876 14.38C4.76376 13.4262 4.96376 12.505 5.21001 11.5837C6.66251 6.67123 9.87126 2.58248 14.4875 0.707481H14.4863ZM20.6463 9.53123C20.6463 10.027 20.5486 10.5179 20.3589 10.9759C20.1692 11.4339 19.8911 11.85 19.5406 12.2006C19.19 12.5511 18.7739 12.8292 18.3159 13.0189C17.8579 13.2086 17.367 13.3062 16.8713 13.3062C16.3755 13.3062 15.8846 13.2086 15.4266 13.0189C14.9686 12.8292 14.5525 12.5511 14.2019 12.2006C13.8514 11.85 13.5733 11.4339 13.3836 10.9759C13.1939 10.5179 13.0963 10.027 13.0963 9.53123C13.0963 9.03549 13.1939 8.54461 13.3836 8.0866C13.5733 7.6286 13.8514 7.21244 14.2019 6.8619C14.5525 6.51136 14.9686 6.2333 15.4266 6.04359C15.8846 5.85387 16.3755 5.75623 16.8713 5.75623C17.367 5.75623 17.8579 5.85387 18.3159 6.04359C18.7739 6.2333 19.19 6.51136 19.5406 6.8619C19.8911 7.21244 20.1692 7.6286 20.3589 8.0866C20.5486 8.54461 20.6463 9.03549 20.6463 9.53123Z" fill="#095CF3"/>
</svg>
